<svg xmlns="http://www.w3.org/2000/svg" width="400" height="400" fill="none"><g clip-path="url(#a)"><path fill="#fff" d="M0 0h400v400H0z"/><path fill="#0F0" d="M0 0h48v66H0z"/><path fill="#000" d="M48 0h44v66H48z"/><path fill="#0F0" d="M92 0h29v66H92z"/><path fill="#000" d="M121 0h25v66h-25z"/><path fill="#0F0" d="M146 0h20v66h-20z"/><path fill="#000" d="M166 0h15v66h-15z"/><path fill="#0F0" d="M181 0h10v66h-10z"/><path fill="#000" d="M197 66h-6V0h6z"/><path fill="#0F0" d="M197 0h3v66h-3z"/><path fill="#000" d="M0 66h48v67H0z"/><path fill="#00F" d="M48 66h44v67H48z"/><path fill="#000" d="M92 66h29v67H92z"/><path fill="#00F" d="M121 66h25v67h-25z"/><path fill="#000" d="M146 66h20v67h-20z"/><path fill="#00F" d="M166 66h15v67h-15z"/><path fill="#000" d="M181 66h10v67h-10z"/><path fill="#00F" d="M197 133h-6V66h6z"/><path fill="#000" d="M197 66h3v67h-3z"/><path fill="red" d="M0 133h48v68H0z"/><path fill="#000" d="M48 133h44v68H48z"/><path fill="red" d="M92 133h29v68H92z"/><path fill="#000" d="M121 133h25v68h-25z"/><path fill="red" d="M146 133h20v68h-20z"/><path fill="#000" d="M166 133h15v68h-15z"/><path fill="red" d="M181 133h10v68h-10z"/><path fill="#000" d="M197 201h-6v-68h6z"/><path fill="red" d="M197 133h3v68h-3z"/><path fill="#000" d="M0 201h48v66H0z"/><path fill="#0F0" d="M48 201h44v66H48z"/><path fill="#000" d="M92 201h29v66H92z"/><path fill="#0F0" d="M121 201h25v66h-25z"/><path fill="#000" d="M146 201h20v66h-20z"/><path fill="#0F0" d="M166 201h15v66h-15z"/><path fill="#000" d="M181 201h10v66h-10z"/><path fill="#0F0" d="M197 267h-6v-66h6z"/><path fill="#000" d="M197 201h3v66h-3z"/><path fill="#00F" d="M0 267h48v67H0z"/><path fill="#000" d="M48 267h44v67H48z"/><path fill="#00F" d="M92 267h29v67H92z"/><path fill="#000" d="M121 267h25v67h-25z"/><path fill="#00F" d="M146 267h20v67h-20z"/><path fill="#000" d="M166 267h15v67h-15z"/><path fill="#00F" d="M181 267h10v67h-10z"/><path fill="#000" d="M197 334h-6v-67h6z"/><path fill="#00F" d="M197 267h3v67h-3z"/><path fill="#000" d="M0 334h48v66H0z"/><path fill="red" d="M48 334h44v66H48z"/><path fill="#000" d="M92 334h29v66H92z"/><path fill="red" d="M121 334h25v66h-25z"/><path fill="#000" d="M146 334h20v66h-20z"/><path fill="red" d="M166 334h15v66h-15z"/><path fill="#000" d="M181 334h10v66h-10z"/><path fill="red" d="M197 400h-6v-66h6z"/><path fill="#000" d="M197 334h3v66h-3zM400 0h-48v66h48z"/><path fill="red" d="M352 0h-44v66h44z"/><path fill="#000" d="M308 0h-29v66h29z"/><path fill="red" d="M279 0h-25v66h25z"/><path fill="#000" d="M254 0h-20v66h20z"/><path fill="red" d="M234 0h-15v66h15z"/><path fill="#000" d="M219 0h-10v66h10z"/><path fill="red" d="M203 66h6V0h-6z"/><path fill="#000" d="M203 0h-3v66h3z"/><path fill="#0F0" d="M400 66h-48v67h48z"/><path fill="#000" d="M352 66h-44v67h44z"/><path fill="#0F0" d="M308 66h-29v67h29z"/><path fill="#000" d="M279 66h-25v67h25z"/><path fill="#0F0" d="M254 66h-20v67h20z"/><path fill="#000" d="M234 66h-15v67h15z"/><path fill="#0F0" d="M219 66h-10v67h10z"/><path fill="#000" d="M203 133h6V66h-6z"/><path fill="#0F0" d="M203 66h-3v67h3z"/><path fill="#000" d="M400 133h-48v68h48z"/><path fill="#00F" d="M352 133h-44v68h44z"/><path fill="#000" d="M308 133h-29v68h29z"/><path fill="#00F" d="M279 133h-25v68h25z"/><path fill="#000" d="M254 133h-20v68h20z"/><path fill="#00F" d="M234 133h-15v68h15z"/><path fill="#000" d="M219 133h-10v68h10z"/><path fill="#00F" d="M203 201h6v-68h-6z"/><path fill="#000" d="M203 133h-3v68h3z"/><path fill="red" d="M400 201h-48v66h48z"/><path fill="#000" d="M352 201h-44v66h44z"/><path fill="red" d="M308 201h-29v66h29z"/><path fill="#000" d="M279 201h-25v66h25z"/><path fill="red" d="M254 201h-20v66h20z"/><path fill="#000" d="M234 201h-15v66h15z"/><path fill="red" d="M219 201h-10v66h10z"/><path fill="#000" d="M203 267h6v-66h-6z"/><path fill="red" d="M203 201h-3v66h3z"/><path fill="#000" d="M400 267h-48v67h48z"/><path fill="#0F0" d="M352 267h-44v67h44z"/><path fill="#000" d="M308 267h-29v67h29z"/><path fill="#0F0" d="M279 267h-25v67h25z"/><path fill="#000" d="M254 267h-20v67h20z"/><path fill="#0F0" d="M234 267h-15v67h15z"/><path fill="#000" d="M219 267h-10v67h10z"/><path fill="#0F0" d="M203 334h6v-67h-6z"/><path fill="#000" d="M203 267h-3v67h3z"/><path fill="#00F" d="M400 334h-48v66h48z"/><path fill="#000" d="M352 334h-44v66h44z"/><path fill="#00F" d="M308 334h-29v66h29z"/><path fill="#000" d="M279 334h-25v66h25z"/><path fill="#00F" d="M254 334h-20v66h20z"/><path fill="#000" d="M234 334h-15v66h15z"/><path fill="#00F" d="M219 334h-10v66h10z"/><path fill="#000" d="M203 400h6v-66h-6z"/><path fill="#00F" d="M203 334h-3v66h3z"/></g><defs><clipPath id="a"><path fill="#fff" d="M0 0h400v400H0z"/></clipPath></defs></svg>