<svg xmlns="http://www.w3.org/2000/svg" fill="none" viewBox="0 0 215 92" height="92" width="215">
<g clip-path="url(#clip0_4_3)">
<path fill="white" d="M38.8012 11.5734V2.3217H35.4727V0.187225H44.5547V2.3217H41.2438V11.5734H38.8026H38.8012Z"></path>
<path fill="white" d="M47.0315 5.88912C47.0315 2.45876 49.5405 -3.05176e-05 52.9885 -3.05176e-05C56.4365 -3.05176e-05 58.9292 2.45876 58.9292 5.88912C58.9292 9.31949 56.4202 11.7783 52.9885 11.7783C49.5568 11.7783 47.0315 9.31949 47.0315 5.88912ZM56.4365 5.88912C56.4365 3.75464 55.0877 2.15073 52.9885 2.15073C50.8893 2.15073 49.5228 3.75464 49.5228 5.88912C49.5228 8.0236 50.8717 9.62751 52.9885 9.62751C55.1053 9.62751 56.4365 8.00596 56.4365 5.88912Z"></path>
<path fill="white" d="M70.3594 11.5736L64.9316 4.1484V11.5736H62.5081V0.187469H65.0008L70.2752 7.33994V0.187469H72.6987V11.5736H70.3594Z"></path>
<path fill="white" d="M80.0037 11.5734V6.91362L75.6329 0.187225H78.3984L81.2154 4.74521L84.0324 0.187225H86.7803L82.4272 6.91362V11.5734H80.0037Z"></path>
<path fill="white" d="M102.413 11.5731L100.177 7.52671H98.4017V11.5731H95.9768V0.186981H101.303C103.676 0.186981 105.143 1.74069 105.143 3.85752C105.143 5.85495 103.863 6.94729 102.634 7.23768L105.212 11.5731H102.413ZM102.652 3.83988C102.652 2.90088 101.918 2.3201 100.962 2.3201H98.4017V5.39223H100.962C101.918 5.39223 102.652 4.81146 102.652 3.83853V3.83988Z"></path>
<path fill="white" d="M108.281 5.88912C108.281 2.45876 110.79 -3.05176e-05 114.238 -3.05176e-05C117.686 -3.05176e-05 120.179 2.45876 120.179 5.88912C120.179 9.31949 117.67 11.7783 114.238 11.7783C110.807 11.7783 108.281 9.31949 108.281 5.88912ZM117.686 5.88912C117.686 3.75464 116.338 2.15073 114.238 2.15073C112.139 2.15073 110.773 3.75464 110.773 5.88912C110.773 8.0236 112.122 9.62751 114.238 9.62751C116.355 9.62751 117.686 8.00596 117.686 5.88912Z"></path>
<path fill="white" d="M123.766 11.5736V0.187469H129.758C131.927 0.187469 133.035 1.5702 133.035 3.08998C133.035 4.50663 132.148 5.47957 131.072 5.7021C132.301 5.88936 133.256 7.06855 133.256 8.4852C133.256 10.2085 132.13 11.575 129.945 11.575H123.766V11.5736ZM130.56 3.51606C130.56 2.81588 130.049 2.32195 129.229 2.32195H126.191V4.71153H129.229C130.049 4.71153 130.56 4.25017 130.56 3.51606ZM130.783 8.1419C130.783 7.42543 130.271 6.84465 129.332 6.84465H126.191V9.43914H129.332C130.237 9.43914 130.783 8.96149 130.783 8.1419Z"></path>
<path fill="white" d="M136.957 11.5734V0.187225H142.95C145.118 0.187225 146.227 1.56996 146.227 3.08974C146.227 4.50639 145.339 5.47932 144.263 5.70186C145.493 5.88912 146.448 7.06831 146.448 8.48496C146.448 10.2083 145.322 11.5747 143.137 11.5747H136.957V11.5734ZM143.752 3.51582C143.752 2.81563 143.24 2.3217 142.42 2.3217H139.382V4.71129H142.42C143.24 4.71129 143.752 4.24993 143.752 3.51582ZM143.974 8.14165C143.974 7.42518 143.463 6.84441 142.524 6.84441H139.382V9.43889H142.524C143.429 9.43889 143.974 8.96125 143.974 8.14165Z"></path>
<path fill="white" d="M150.149 11.5731V0.186981H152.572V11.5731H150.149Z"></path>
<path fill="white" d="M164.559 11.5731L159.131 4.14791V11.5731H156.707V0.186981H159.2L164.474 7.33945V0.186981H166.898V11.5731H164.56H164.559Z"></path>
<path fill="white" d="M170.24 9.9694L171.571 8.0751C172.373 8.91098 173.62 9.62881 175.19 9.62881C176.539 9.62881 177.17 9.03175 177.17 8.36549C177.17 6.3857 170.614 7.76843 170.614 3.48319C170.614 1.58889 172.254 0.0175476 174.934 0.0175476C176.744 0.0175476 178.246 0.564397 179.372 1.60518L178.023 3.41399C177.102 2.56047 175.873 2.16831 174.712 2.16831C173.688 2.16831 173.107 2.61203 173.107 3.29458C173.107 5.0871 179.645 3.87535 179.645 8.12531C179.645 10.2082 178.143 11.7782 175.087 11.7782C172.885 11.7782 171.315 11.0441 170.239 9.96804L170.24 9.9694Z"></path>
</g>
<path fill="white" d="M181.85 91.778V86.8578L175.051 79.0676H179.988L183.934 83.7486L187.949 79.0676H192.442L185.831 86.8578V91.778H181.85Z"></path>
<path fill="white" d="M147.203 91.778V79.0676H152.858L157.248 86.9774L161.656 79.0676H167.106V91.778H163.176V82.9798L158.171 91.778H156.035L151.03 82.9798V91.778H147.203Z"></path>
<path fill="white" d="M124.641 79.0676H138.034V81.9548H128.57V83.834H137.812V86.7383H128.57V88.8225H138.205V91.778H124.641V79.0676Z"></path>
<path fill="white" d="M98.5391 91.778V79.0676H106.961C114.324 79.0676 115.93 82.2281 115.93 85.0811V85.5936C115.93 88.3271 114.41 91.778 106.978 91.778H98.5391ZM102.52 82.0744V88.72H106.654C111.164 88.72 111.762 86.7383 111.762 85.4399V85.3374C111.762 84.039 111.232 82.0744 106.654 82.0744H102.52Z"></path>
<path fill="white" d="M83.5424 86.5845L81.0823 81.8181L78.7247 86.5845H83.5424ZM86.2074 91.778L85.0116 89.4546H77.3068L76.1621 91.778H72.1133L78.5368 79.0676H83.6961L90.4955 91.778H86.2074Z"></path>
<path fill="white" d="M56.9269 92H56.2265C48.8634 92 47.7188 87.8828 47.7188 85.6277V85.1323C47.7188 82.826 48.7096 78.8455 56.2265 78.8455H56.9269C64.29 78.8455 65.4347 82.3647 65.4347 83.851V84.0389H61.215C61.1125 83.6973 60.5999 81.9205 56.5682 81.9205C52.7585 81.9205 51.8872 83.6289 51.8872 85.2177V85.4227C51.8872 86.9261 52.8951 88.9078 56.6023 88.9078C60.7195 88.9078 61.1295 86.9432 61.232 86.6528H65.4517V86.8407C65.4517 88.4466 64.1875 92 56.9269 92Z"></path>
<path fill="white" d="M34.2494 86.5845L31.7893 81.8181L29.4317 86.5845H34.2494ZM36.9145 91.778L35.7186 89.4546H28.0138L26.8692 91.778H22.8203L29.2438 79.0676H34.4031L41.2025 91.778H36.9145Z"></path>
<path fill="white" d="M201.968 49.0548V64.4367H195.148V26.2896H206.07C211.607 26.2896 214.324 28.3406 214.324 34.442V40.6973C214.324 46.4912 211.453 49.0548 206.07 49.0548H201.968ZM201.968 43.3635H204.378C206.787 43.3635 207.556 42.5432 207.556 39.313V35.7239C207.556 32.6475 206.787 31.7246 204.378 31.7246H201.968V43.3635Z"></path>
<path fill="white" d="M190.011 64.4367H183.191V26.2896H190.011V64.4367Z"></path>
<path fill="white" d="M158.117 26.2896H164.936V41.4151H171.243V26.2896H178.062V64.4367H171.243V47.8243H164.936V64.4367H158.117V26.2896Z"></path>
<path fill="white" d="M143.358 64.8464C137.359 64.8464 134.18 62.0777 134.18 57.1555V50.6951H140.845V55.9249C140.845 58.0271 141.922 59.0526 143.922 59.0526C145.921 59.0526 146.947 57.822 146.947 55.3609V54.9507C146.947 52.4384 146.126 51.1565 144.075 49.3107L139.102 44.85C136.077 42.1325 134.436 39.6201 134.436 35.4158V34.339C134.436 28.5452 137.615 25.879 143.716 25.879H144.793C150.382 25.879 153.612 28.2888 153.612 33.2623V38.287H147.049V34.5954C147.049 32.2881 146.126 31.3652 144.28 31.3652C142.281 31.3652 141.358 32.2368 141.358 34.4416V34.8005C141.358 37.0565 142.127 38.1332 144.178 40.0303L149.1 44.5423C152.484 47.67 154.022 49.926 154.022 54.4893V55.566C154.022 60.7446 151.254 64.8464 144.486 64.8464H143.358Z"></path>
<path fill="white" d="M117.393 42.0817H120.213C122.52 42.0817 123.34 40.7486 123.34 38.2875V35.006C123.34 32.3911 122.52 31.4169 120.213 31.4169H117.393V42.0817ZM117.393 64.4367H110.676V26.2896H122.674C127.596 26.2896 130.057 28.4431 130.057 33.5191V37.6722C130.057 41.6715 127.955 43.3122 126.211 43.825C128.211 44.5941 130.057 46.2348 130.057 50.1315V59.8221C130.057 61.8218 130.313 63.3087 130.672 64.1803V64.4367H124.007C123.648 63.8214 123.34 62.6934 123.34 60.0785V51.2595C123.34 48.6446 122.469 47.5166 120.213 47.5166H117.393V64.4367Z"></path>
<path fill="white" d="M106.325 26.2896V32.2373H96.2241V41.6715H104.633V47.773H96.2241V58.3352H106.632V64.4367H89.5586V26.2896H106.325Z"></path>
<path fill="white" d="M65.0859 26.2896H75.8533C82.006 26.2896 84.4671 28.7507 84.4671 35.0573V55.4639C84.4671 61.6167 82.006 64.4367 75.8533 64.4367H65.0859V26.2896ZM71.9052 58.6428H74.3151C76.7762 58.6428 77.5965 57.3098 77.5965 54.6436V35.7239C77.5965 32.9038 76.8274 31.7246 74.4176 31.7246H71.9052V58.6428Z"></path>
<path fill="white" d="M48.0184 51.721H53.1456L51.7613 43.1584C51.0947 38.9027 50.7358 36.2366 50.582 34.0318C50.3769 36.2366 49.9667 39.0566 49.3514 43.1584L48.0184 51.721ZM54.0686 57.4123H47.0954L46.0187 64.4367H40.0198L46.4289 26.2896H54.9402L61.7595 64.4367H55.1966L54.0686 57.4123Z"></path>
<path fill="white" d="M37.4616 26.2896V32.2373H27.3608V41.6715H35.7695V47.773H27.3608V58.3352H37.7692V64.4367H20.6953V26.2896H37.4616Z"></path>
<path fill="white" d="M7.49898 26.2896V58.1814H16.8307V64.4367H0.679688V26.2896H7.49898Z"></path>
<defs>
<clipPath id="clip0_4_3">
<rect transform="translate(35.4729 -3.05176e-05)" fill="white" height="11.7783" width="144.173"></rect>
</clipPath>
</defs>
</svg>
