<svg width="18" height="18" viewBox="0 0 18 18" fill="none" xmlns="http://www.w3.org/2000/svg">
<path fill-rule="evenodd" clip-rule="evenodd" d="M9.0075 0C4.02659 0 0 4.12501 0 9.2282C0 13.3075 2.57997 16.7605 6.15908 17.9826C6.60656 18.0745 6.77047 17.784 6.77047 17.5397C6.77047 17.3258 6.75572 16.5925 6.75572 15.8284C4.25005 16.3785 3.72827 14.7283 3.72827 14.7283C3.32559 13.6588 2.72895 13.384 2.72895 13.384C1.90884 12.8186 2.78869 12.8186 2.78869 12.8186C3.6984 12.8798 4.17575 13.7659 4.17575 13.7659C4.98092 15.1714 6.27837 14.7743 6.80034 14.5298C6.87482 13.9339 7.11359 13.5214 7.36711 13.2923C5.36866 13.0783 3.26603 12.2839 3.26603 8.7392C3.26603 7.73083 3.62372 6.90583 4.1905 6.2642C4.10107 6.03507 3.78782 5.08763 4.2801 3.81957C4.2801 3.81957 5.04065 3.57507 6.75553 4.76682C7.48973 4.56482 8.2469 4.46206 9.0075 4.4612C9.76805 4.4612 10.5434 4.56826 11.2593 4.76682C12.9743 3.57507 13.7349 3.81957 13.7349 3.81957C14.2272 5.08763 13.9137 6.03507 13.8243 6.2642C14.406 6.90583 14.749 7.73083 14.749 8.7392C14.749 12.2839 12.6463 13.063 10.633 13.2923C10.9611 13.5825 11.2443 14.1325 11.2443 15.0034C11.2443 16.2409 11.2296 17.2341 11.2296 17.5395C11.2296 17.784 11.3937 18.0745 11.841 17.9828C15.4201 16.7603 18.0001 13.3075 18.0001 9.2282C18.0148 4.12501 13.9735 0 9.0075 0Z" fill="#E5E5E7"/>
</svg>
